# xmcd
#
# Track frame offsets:
#	150
#	26383
#	44081
#	63087
#	93127
#	107207
#	122435
#	133977
#	153036
#	171770
#	186904
#	204534
#	231199
#
# Disc length: 3450 seconds
#
# Revision: 1
# Processed by: cddbd v1.5.1PL0 Copyright (c) Steve Scherf et al.
# Submitted via: audiograbber 1.83.01
#
DISCID=a90d780d
DTITLE=Alvin Youngblood Hart - Motivational Speaker
DYEAR=2005
DGENRE=Blues
TTITLE0=Big Mama's Door (Might Return)
TTITLE1=Motivational Speaker
TTITLE2=Stomp Dance
TTITLE3=In My Time Of Dying
TTITLE4=Lawd I'm Just A Country Boy In This Great Big Freaky City
TTITLE5=My World Is Round
TTITLE6=Nobody's Fault But Mine
TTITLE7=Shoot Me A Grin
TTITLE8=The Worm
TTITLE9=Necessary Roughness ( A Power Move)
TTITLE10=The Meanest Jukebox In Town
TTITLE11=How Long Before I Change My Clothes
TTITLE12=Shootout On I-55
EXTD=
EXTT0=
EXTT1=
EXTT2=
EXTT3=
EXTT4=
EXTT5=
EXTT6=
EXTT7=
EXTT8=
EXTT9=
EXTT10=
EXTT11=
EXTT12=
PLAYORDER=
